<svg width="32" height="32" viewBox="0 0 32 32" fill="none" xmlns="http://www.w3.org/2000/svg">
<path d="M17.7186 8.28407L24.3039 3.16141C24.5605 2.96241 24.8808 2.86385 25.2048 2.88422C25.5289 2.9046 25.8343 3.0425 26.0639 3.27207L30.0573 7.26407C30.2866 7.49383 30.4243 7.79939 30.4444 8.12342C30.4645 8.44745 30.3658 8.76769 30.1666 9.02407L25.0466 15.6094C25.4076 17.0819 25.4293 18.6173 25.11 20.0994C24.7907 21.5816 24.1388 22.9718 23.2035 24.165C22.2682 25.3583 21.074 26.3235 19.711 26.9876C18.3481 27.6518 16.8521 27.9975 15.3359 27.9987C10.6666 27.9987 4.66659 25.9961 1.33325 23.9961C6.63992 19.9961 5.39592 17.5827 5.99992 15.3294C7.41059 10.0627 12.4559 6.98541 17.7186 8.28407ZM22.2666 10.7894C22.3537 10.8739 22.4399 10.9596 22.5253 11.0467L24.0399 12.5601L27.3399 8.31741L25.0119 5.98941L20.7693 9.28941L22.2666 10.7894Z" fill="black"/>
</svg>
